<svg xmlns="http://www.w3.org/2000/svg" width="25" height="27" viewBox="0 0 25 27">
  <g id="Page-1" fill="none" fill-rule="evenodd">
    <g id="quiz_tablette_ver" fill="#391F1F" fill-rule="nonzero" transform="translate(-1080 -99)">
      <g id="pouch_ico" transform="translate(1080 99)">
        <g id="Group">
          <path id="Shape" d="M14 8C13.707 8.13 12 9 10 9 8 9 6.295 8.13 6 8 1.992 10.147 0 15.891 0 20.333 0 25.856 4.477 27 10 27 15.523 27 20 25.856 20 20.333 20 15.891 18.008 10.147 14 8zM23.791 10.846L24.572 10.221C21.681 6.608 18.316 5.983 16.468 5.949 16.316 6.094 15.814 6.542 14.999 7 15.214 7.094 21.749 10.049 22.687 16.603L23.677 16.461C22.952 11.401 19.29 8.384 17.077 6.993 18.799 7.165 21.473 7.946 23.791 10.846zM10 2C7.291 2 5-.708 5 2 5 3.22 5.264 4.777 6 6 6.506 6.326 8 7 10 7 12 7 13.85 6.098 14 6 14.738 4.775 15 3.222 15 2 15-.708 12.711 2 10 2z"/>
        </g>
      </g>
    </g>
  </g>
</svg>
