<?xml version="1.0" encoding="utf-8"?>
<!-- Generator: Adobe Illustrator 22.1.0, SVG Export Plug-In . SVG Version: 6.00 Build 0)  -->
<svg version="1.1" id="Calque_1" xmlns="http://www.w3.org/2000/svg" xmlns:xlink="http://www.w3.org/1999/xlink" x="0px" y="0px"
	 viewBox="0 0 30 50" style="enable-background:new 0 0 30 50;" xml:space="preserve">
<style type="text/css">
	.st0{fill:#8022B2;}
</style>
<path class="st0" d="M14.9,1.8l-13,9.3V37l13,10.1L28.1,37V11.6L14.9,1.8z"/>
<path d="M1.2,37.5c0,0.1,0,0.2,0.1,0.3c0,0.1,0.1,0.2,0.2,0.2l13,10l0.1,0.1h0.1c0.2,0.1,0.4,0.1,0.5,0h0.1l0.1-0.1l13-10
	c0.1-0.1,0.1-0.1,0.2-0.2c0-0.1,0.1-0.2,0.1-0.3v-26c0-0.1,0-0.2-0.1-0.3c0-0.1-0.1-0.2-0.2-0.2l-13-10l-0.1-0.1h-0.1
	c-0.2-0.1-0.4-0.1-0.5,0h-0.1L14.5,1l-13,10c-0.1,0.1-0.2,0.2-0.2,0.2c0,0.1-0.1,0.2-0.1,0.3V37.5z M27.2,36.3l-4.5-2.2V14.9
	l4.5-2.2V36.3z M7.9,35.4l6.3,4.9V46L3.4,37.7L7.9,35.4z M14.8,10.2c0.2,0.1,0.3,0.1,0.5,0l6,4.6v13.9L10.5,18
	c-0.3-0.3-0.8-0.3-1.1,0s-0.3,0.7,0,1l11.8,11.8v3.4l-6,4.6c-0.2-0.1-0.3-0.1-0.5,0l-6-4.6V14.8L14.8,10.2z M15.8,40.3l6.3-4.9
	l4.5,2.2l-10.8,8.3V40.3z M22.1,13.6l-6.3-4.9V3l10.8,8.3L22.1,13.6z M14.2,8.7l-6.3,4.9l-4.5-2.2l10.8-8.3V8.7z M7.2,14.9v19.2
	l-4.5,2.2V12.7L7.2,14.9z"/>
<path d="M17,31.5c0.3,0.3,0.7,0.3,1,0s0.3-0.7,0-1L13.5,26c-0.3-0.3-0.8-0.3-1.1,0s-0.3,0.7,0,1L17,31.5z"/>
</svg>
