<?xml version="1.0" encoding="utf-8"?>
<!-- Generator: Adobe Illustrator 22.1.0, SVG Export Plug-In . SVG Version: 6.00 Build 0)  -->
<svg version="1.1" id="Calque_1" xmlns="http://www.w3.org/2000/svg" xmlns:xlink="http://www.w3.org/1999/xlink" x="0px" y="0px"
	 viewBox="0 0 100 125" style="enable-background:new 0 0 100 125;" xml:space="preserve">
<style type="text/css">
	.st0{fill:#52DD5C;}
</style>
<polygon class="st0" points="49.9,27.3 36.9,36.6 36.9,62.5 49.9,72.6 63.1,62.5 63.1,37.1 "/>
<path d="M36.2,63L36.2,63c0,0.1,0,0.2,0.1,0.3l0,0c0,0.1,0.1,0.2,0.2,0.2l0,0l13,10l0.1,0.1h0.1c0.2,0.1,0.4,0.1,0.5,0h0.1l0.1-0.1
	l13-10l0,0c0.1-0.1,0.1-0.1,0.2-0.2l0,0c0-0.1,0.1-0.2,0.1-0.3V37c0-0.1,0-0.2-0.1-0.3l0,0c0-0.1-0.1-0.2-0.2-0.2l0,0l-13-10
	l-0.1-0.1l-0.1,0c-0.2-0.1-0.4-0.1-0.5,0l-0.1,0l-0.1,0.1l-13,10l0,0c-0.1,0.1-0.2,0.2-0.2,0.2l0,0c0,0.1-0.1,0.2-0.1,0.3L36.2,63
	L36.2,63z M62.2,61.8l-4.5-2.2V40.4l4.5-2.2V61.8z M42.9,60.9l6.3,4.9v5.7l-10.8-8.3L42.9,60.9z M49.8,35.7c0.2,0.1,0.3,0.1,0.5,0
	l6,4.6v13.9L45.5,43.5c-0.3-0.3-0.8-0.3-1.1,0c-0.3,0.3-0.3,0.7,0,1l11.8,11.8v3.4l-6,4.6c-0.2-0.1-0.3-0.1-0.5,0l-6-4.6V40.3
	L49.8,35.7z M50.8,65.8l6.3-4.9l4.5,2.2l-10.8,8.3L50.8,65.8z M57.1,39.1l-6.3-4.9v-5.7l10.8,8.3L57.1,39.1z M49.2,34.2l-6.3,4.9
	l-4.5-2.2l10.8-8.3V34.2z M42.2,40.4v19.2l-4.5,2.2V38.2L42.2,40.4z"/>
<path d="M52,57c0.3,0.3,0.7,0.3,1,0c0.3-0.3,0.3-0.7,0-1l-4.5-4.5c-0.3-0.3-0.8-0.3-1.1,0c-0.3,0.3-0.3,0.7,0,1L52,57z"/>
</svg>
